<svg width="20" height="17" fill="none" xmlns="http://www.w3.org/2000/svg"><path d="M4.273 13.48a.91.91 0 0 0-.133 1.135c.567.901 1.333 1.635 2.232 2.236.267.167.633.2.9.033.1-.033.166-.1.233-.167l5.163-5.172-5.663-.834-2.732 2.77ZM15.039 6.541l-1.033-1.034c-.066 0-.1-.034-.166-.034-.2-.1-.434-.233-.6-.433-.167-.134-.4-.134-.533 0L9.109 8.677l3.298.534 2.632-2.67Z" fill="#0A182E"/><path d="M15.647 7.338c-.034-.033-.034-.066-.067-.1a.475.475 0 0 1-.066-.2l-.2-.2-2.765 2.803-3.731-.6-.466.466 4.497.701 2.798-2.87Z" fill="#000"/><path d="m15.895 7.643-2.931 2.936-2.499-.4-2.498-.4-.6.6 5.663.867 2.931-2.936a.38.38 0 0 0 .1-.267c0-.1-.033-.2-.1-.267 0-.033-.033-.1-.066-.133Z" fill="#000"/><path d="m19.975 2.135-1.066-1.068A.252.252 0 0 0 18.776 1c-.034 0-.067 0-.1.033l-.4.4c-.067.068-.067.134 0 .201l-3.664 3.67c-.067.034-.1.1-.167.134l.866.868.267.267c.033-.067.067-.134.133-.167l3.664-3.67c.067.066.167.066.2 0l.4-.401a.213.213 0 0 0 0-.2Z" fill="#19398A"/><path d="M2.26 7.84c-.017-.032-.009-.08.032-.097.033-.016.082-.008.098.033l.074.122a.088.088 0 0 1-.009.09l.147.074c-.016-.025-.024-.05-.04-.074-.017-.033-.009-.082.032-.098.033-.016.082-.008.098.033l.074.122c.016.025.008.066-.009.09.082.033.164.074.253.098a4.908 4.908 0 0 1-.603-2.361c0-1.307.505-2.541 1.436-3.464a4.919 4.919 0 0 1 1.615-1.079 4.46 4.46 0 0 0-.669-.171c0 .024-.016.049-.049.065-.04.016-.09.041-.13.057-.009.009-.017.009-.033.009-.025 0-.057-.017-.065-.041-.017-.041 0-.082.04-.098.009-.009.017-.009.025-.009-.114-.008-.229-.016-.351-.016A3.641 3.641 0 0 0 .563 4.777c0 1.316.685 2.468 1.721 3.113a.133.133 0 0 0-.024-.05ZM4.838 1.29c.04-.025.09-.041.13-.058.041-.016.082 0 .098.041.017.041 0 .082-.04.098-.041.017-.09.041-.13.057-.01.009-.017.009-.034.009-.024 0-.057-.017-.065-.041-.016-.05 0-.09.041-.106Zm-2.53 5.947h-.024c-.033 0-.057-.016-.073-.049-.017-.049-.033-.098-.041-.139-.008-.04.008-.081.049-.09.04-.008.081.009.09.05.016.049.024.09.04.138.017.041 0 .082-.04.09ZM2.106 4.99a.08.08 0 0 1 .065.081c-.008.05-.008.098-.016.147 0 .041-.033.066-.074.066h-.008c-.04-.008-.073-.041-.065-.082.008-.049.008-.098.016-.147.008-.05.04-.074.082-.065Zm-.017-.295c.008-.049.025-.098.033-.147a.075.075 0 1 1 .147.033c-.008.05-.025.09-.033.139a.078.078 0 0 1-.073.057h-.017c-.04 0-.073-.04-.057-.082Zm-.032.785c.04 0 .073.032.073.073V5.7a.073.073 0 1 1-.147 0v-.155c0-.033.033-.065.074-.065Zm.008.498a.08.08 0 0 1 .081.066c0 .049.009.098.017.147.008.04-.025.073-.066.081h-.008c-.04 0-.065-.024-.073-.065-.008-.05-.008-.098-.016-.147-.009-.041.024-.082.065-.082Zm.049.499c.04-.009.081.016.081.057l.025.139a.075.075 0 0 1-.057.09h-.017a.078.078 0 0 1-.073-.058.95.95 0 0 0-.033-.147.108.108 0 0 1 .074-.081Zm.359.996c.016.041.04.09.057.131.016.04 0 .082-.04.098-.01.008-.017.008-.034.008-.024 0-.057-.016-.065-.04-.016-.05-.04-.09-.057-.14-.016-.04 0-.081.04-.098.042-.016.09 0 .099.041Zm-.074-3.358c-.016.05-.032.09-.049.14-.008.032-.04.048-.073.048h-.025a.078.078 0 0 1-.048-.09c.016-.049.032-.098.048-.138.017-.041.058-.058.09-.041.05 0 .074.049.057.081ZM4.39 1.517c.041-.024.09-.049.13-.073.033-.017.082-.008.099.032.016.041.008.082-.033.098l-.122.074c-.008.008-.025.008-.041.008-.025 0-.05-.016-.065-.032-.017-.041-.009-.09.032-.107Zm-.294-.147c.041-.024.09-.049.131-.073.033-.017.082-.008.098.032.016.033.008.082-.033.098l-.122.074c-.008.008-.025.008-.04.008-.025 0-.05-.016-.066-.033-.016-.04 0-.09.032-.106Zm-.13.425c.04-.033.082-.057.122-.082.033-.024.082-.016.098.017.025.032.017.081-.016.098-.04.024-.082.057-.114.081-.017.009-.025.017-.041.017-.025 0-.05-.008-.057-.033-.033-.033-.025-.073.008-.098Zm-.294-.147c.041-.033.082-.057.123-.082.032-.024.081-.016.098.017.024.032.016.081-.017.098-.04.024-.081.057-.114.081-.016.009-.025.017-.04.017-.025 0-.05-.008-.058-.033-.033-.033-.024-.073.008-.098Zm-.098.466a1.42 1.42 0 0 1 .115-.098.077.077 0 0 1 .106.008.077.077 0 0 1-.009.106c-.032.033-.073.065-.106.098-.016.016-.032.016-.049.016a.088.088 0 0 1-.057-.024c-.032-.033-.032-.082 0-.106Zm-.293-.147a1.42 1.42 0 0 1 .114-.098.077.077 0 0 1 .106.008.077.077 0 0 1-.008.106c-.033.033-.074.065-.106.098-.017.016-.033.016-.05.016a.088.088 0 0 1-.056-.024c-.033-.033-.033-.082 0-.106Zm-.066.498c.033-.033.066-.074.098-.106.025-.033.074-.033.106 0 .033.024.033.073 0 .106-.032.033-.065.074-.098.106a.074.074 0 0 1-.057.025c-.016 0-.032-.008-.049-.017a.098.098 0 0 1 0-.114Zm-.293-.147c.032-.033.065-.074.097-.106.025-.033.074-.033.107 0 .032.024.032.073 0 .106-.033.033-.066.073-.098.106a.074.074 0 0 1-.058.025.116.116 0 0 1-.048-.017.098.098 0 0 1 0-.114Zm-.025.54c.033-.042.057-.083.09-.123a.077.077 0 0 1 .106-.017c.033.025.04.074.016.107l-.09.114c-.016.016-.04.033-.057.033a.062.062 0 0 1-.04-.017c-.041-.016-.05-.065-.025-.098Zm-.073.375-.074.123a.074.074 0 0 1-.065.032c-.016 0-.025 0-.033-.008-.032-.016-.049-.065-.024-.098.024-.04.049-.09.073-.13.025-.033.066-.05.098-.025.041.024.05.073.025.106Zm-.22-.523c.032-.04.056-.082.09-.122a.077.077 0 0 1 .105-.017c.033.025.041.074.016.106l-.09.115c-.016.016-.04.033-.056.033a.062.062 0 0 1-.041-.017c-.041-.016-.05-.057-.025-.098Zm-.017.956c-.024.04-.04.09-.057.13-.008.025-.04.042-.065.042-.009 0-.017 0-.033-.009-.04-.016-.057-.057-.04-.098.016-.049.04-.09.064-.139a.078.078 0 0 1 .098-.032c.041.024.057.065.033.106Zm-.253-.531c.025-.04.049-.09.074-.13.024-.033.065-.05.097-.025.033.024.05.065.025.098l-.074.122a.074.074 0 0 1-.065.033c-.016 0-.024 0-.032-.008-.033-.008-.05-.05-.025-.09Zm-.228.457c.016-.049.04-.09.065-.138a.078.078 0 0 1 .098-.033.079.079 0 0 1 .032.098c-.024.04-.04.09-.057.13-.008.025-.04.042-.065.042-.008 0-.016 0-.033-.009-.04-.016-.057-.057-.04-.09Zm-.188.466c.016-.049.033-.098.049-.139.016-.04.057-.057.09-.04.04.016.057.057.04.09l-.049.138c-.008.033-.04.05-.073.05H1.95c-.017-.017-.041-.058-.033-.099Zm-.122.49c.008-.049.024-.098.032-.147a.075.075 0 1 1 .147.033c-.008.049-.024.09-.033.139a.078.078 0 0 1-.073.057h-.016c-.041 0-.066-.04-.057-.082Zm-.082.499c.008-.05.008-.098.016-.147a.08.08 0 0 1 .082-.066.08.08 0 0 1 .065.082c-.008.05-.008.098-.016.147 0 .041-.033.065-.074.065h-.008c-.04 0-.073-.04-.065-.081Zm-.025.506v-.147c0-.04.033-.073.074-.073.04 0 .073.032.073.073V5.553a.073.073 0 1 1-.147 0Zm.025.507c-.008-.05-.008-.098-.016-.147a.08.08 0 0 1 .065-.082.08.08 0 0 1 .082.065c0 .05.008.099.016.148.008.04-.025.073-.065.081h-.009c-.032 0-.065-.024-.073-.065Zm.082.498c-.009-.049-.017-.098-.033-.147-.008-.04.016-.082.057-.082.04-.008.082.017.082.058l.024.139a.075.075 0 0 1-.057.09h-.016c-.025 0-.05-.025-.057-.058Zm.195.54c-.032 0-.057-.017-.073-.05-.016-.049-.033-.098-.04-.138-.009-.041.007-.082.048-.09.04-.008.082.008.09.049.016.049.024.09.04.139a.065.065 0 0 1-.048.09H1.99Zm.213.457c-.009.008-.017.008-.033.008-.025 0-.057-.016-.065-.04-.017-.05-.041-.09-.058-.14-.016-.04 0-.081.041-.098.041-.016.082 0 .098.041.017.041.041.09.057.131.008.04-.008.082-.04.098Z" fill="#000"/><path d="M2.688 5.862c0 .891.252 1.749.718 2.484.065.017.122.025.187.041a.469.469 0 0 0-.032-.057c-.017-.033-.009-.082.032-.098.033-.017.082-.008.098.032l.074.123c.008.008.008.016.008.025.024 0 .057.008.081.008.008-.017.017-.033.033-.041.033-.016.082-.008.098.033.008.008.008.016.016.024h.22a3.657 3.657 0 0 0 3.656-3.66 3.66 3.66 0 0 0-1.501-2.958.098.098 0 0 1-.041.041c-.041.016-.09.041-.13.057-.009.008-.017.008-.033.008-.025 0-.058-.016-.066-.04-.016-.041 0-.082.041-.098l.114-.05a1.95 1.95 0 0 0-.171-.106.082.082 0 0 1-.04.09c-.042.017-.09.041-.131.057-.009.009-.017.009-.033.009-.025 0-.057-.017-.065-.041-.017-.041 0-.082.04-.098.05-.017.09-.041.14-.057h.007c-.049-.025-.106-.058-.155-.082-.677.22-1.289.604-1.803 1.12a4.468 4.468 0 0 0-1.362 3.234Zm.954-2.23c.025-.04.05-.09.074-.13.024-.033.065-.05.097-.025.033.024.05.065.025.098l-.073.122a.074.074 0 0 1-.066.033c-.016 0-.024 0-.032-.008-.033-.008-.041-.057-.025-.09Zm-.27 2.345c.042 0 .074.033.074.073V6.197a.073.073 0 1 1-.147 0v-.155c0-.04.033-.073.074-.065Zm-.056-.286c.008-.05.008-.098.016-.147a.08.08 0 0 1 .082-.066.08.08 0 0 1 .065.082c-.008.05-.008.098-.016.147 0 .041-.033.066-.074.066h-.008a.08.08 0 0 1-.065-.082Zm.057.776a.08.08 0 0 1 .081.065c0 .05.009.098.017.147.008.041-.025.074-.065.082h-.009c-.04 0-.065-.024-.073-.065-.008-.05-.008-.098-.016-.147-.009-.041.024-.074.065-.082Zm.057.498c.04-.008.082.017.082.058l.024.139a.075.075 0 0 1-.057.09h-.016a.078.078 0 0 1-.074-.058.952.952 0 0 0-.032-.147c.008-.033.032-.073.073-.082Zm.106-1.748a.078.078 0 0 1-.073.057h-.017a.075.075 0 0 1-.057-.09c.008-.049.025-.098.033-.147a.075.075 0 1 1 .147.033.656.656 0 0 1-.033.147Zm.04-.425a.078.078 0 0 1-.048-.09c.016-.049.033-.098.049-.139.016-.04.057-.057.09-.04.04.016.057.057.04.09l-.049.138c-.008.033-.04.05-.073.05 0 0 0-.009-.008-.009Zm-.162-.71c.016-.05.04-.09.065-.14a.078.078 0 0 1 .098-.032.079.079 0 0 1 .033.098c-.025.04-.041.09-.058.13-.008.025-.04.041-.065.041-.008 0-.016 0-.033-.008-.04-.008-.057-.057-.04-.09Zm-.18.473a2.65 2.65 0 0 1 .05-.139c.015-.04.056-.057.089-.04.04.016.057.057.04.09l-.048.138c-.008.033-.041.05-.074.05h-.024c-.025-.017-.05-.058-.033-.099Zm-.13.49c.008-.049.024-.098.032-.147a.075.075 0 1 1 .147.033c-.008.05-.024.09-.033.139a.078.078 0 0 1-.073.057h-.016c-.041-.008-.066-.049-.057-.082Zm-.082.499c.008-.05.008-.098.016-.147a.08.08 0 0 1 .082-.066.08.08 0 0 1 .065.082c-.008.05-.008.098-.016.147 0 .041-.033.066-.074.066h-.008a.08.08 0 0 1-.065-.082Zm-.024.498v-.147a.073.073 0 1 1 .147 0V6.042c0 .041-.033.074-.074.074a.073.073 0 0 1-.073-.074Zm.032.507c-.008-.05-.008-.098-.016-.147a.08.08 0 0 1 .065-.082.08.08 0 0 1 .082.065c0 .05.008.098.016.147.008.041-.024.074-.065.082h-.008c-.041 0-.074-.024-.074-.065Zm.074.498A.95.95 0 0 0 3.07 6.9c-.008-.04.016-.082.057-.082.04-.008.082.017.082.058.008.049.016.098.024.138a.075.075 0 0 1-.057.09h-.016c-.017 0-.05-.016-.057-.057Zm.204.54c-.033 0-.058-.017-.074-.05a1.261 1.261 0 0 1-.04-.139c-.009-.04.008-.081.048-.09.041-.008.082.009.09.05.016.049.025.09.04.139a.065.065 0 0 1-.048.09h-.016Zm.204.457c-.009.008-.017.008-.033.008-.025 0-.057-.016-.065-.04-.017-.05-.041-.09-.057-.14-.017-.04 0-.081.04-.098.041-.016.082 0 .098.041.017.041.041.09.057.13.017.042 0 .083-.04.099Zm.114-.31H3.6c-.032 0-.057-.017-.073-.05a1.261 1.261 0 0 1-.04-.138c-.009-.041.007-.082.048-.09.04-.009.082.008.09.049.016.049.024.09.04.139.017.032-.008.073-.04.09Zm.18.457c-.009.008-.017.008-.033.008-.025 0-.057-.016-.066-.04-.016-.05-.04-.09-.057-.14-.016-.04 0-.081.041-.098.04-.016.082 0 .098.041s.04.09.057.13c.016.042 0 .083-.04.099Zm.097-4.036c-.024.04-.04.09-.057.13-.008.025-.04.042-.065.042-.008 0-.016 0-.033-.009-.04-.016-.057-.057-.04-.098.016-.049.04-.09.065-.139.016-.032.065-.049.098-.032.032.024.049.073.032.106Zm1.795-2.149c.041-.024.09-.049.13-.073.033-.017.082-.009.099.032.016.033.008.082-.033.098l-.122.074c-.008.008-.025.008-.033.008-.024 0-.049-.016-.065-.033-.025-.04-.008-.081.024-.106Zm-.293-.147c.04-.024.09-.049.13-.073.033-.017.082-.009.098.032.016.033.008.082-.033.098l-.122.074c-.008.008-.024.008-.04.008-.025 0-.05-.016-.066-.033-.016-.04 0-.081.033-.106Zm-.131.425c.04-.033.082-.057.122-.082.033-.024.082-.016.098.017.025.032.017.081-.016.098-.04.024-.082.057-.114.081-.017.009-.025.017-.041.017-.025 0-.049-.008-.057-.033-.025-.033-.025-.074.008-.098Zm-.294-.147c.041-.033.082-.057.123-.082.032-.024.081-.016.098.017.024.032.016.081-.017.098-.04.024-.081.057-.114.081-.016.008-.024.017-.04.017-.025 0-.05-.009-.058-.033-.024-.033-.024-.074.008-.098Zm-.098.466c.033-.033.074-.066.115-.098a.077.077 0 0 1 .106.008.077.077 0 0 1-.008.106c-.033.033-.074.065-.107.098-.016.016-.032.016-.049.016a.088.088 0 0 1-.057-.024.076.076 0 0 1 0-.106Zm-.293-.147c.032-.033.073-.066.114-.099a.077.077 0 0 1 .106.009.077.077 0 0 1-.008.106c-.033.033-.074.065-.106.098-.017.016-.033.016-.05.016a.088.088 0 0 1-.056-.024.076.076 0 0 1 0-.106Zm-.057.506c.032-.033.065-.073.097-.106.025-.033.074-.033.106 0 .033.024.033.073 0 .106-.032.033-.065.074-.097.106a.074.074 0 0 1-.058.025c-.016 0-.032-.008-.048-.017-.025-.04-.033-.09 0-.114Zm-.294-.147c.032-.033.065-.074.098-.106.024-.033.073-.033.106 0 .032.024.032.073 0 .106-.033.033-.066.074-.098.106a.074.074 0 0 1-.057.025.116.116 0 0 1-.05-.017c-.024-.04-.032-.09 0-.114Zm-.025.54c.033-.042.057-.082.09-.123a.077.077 0 0 1 .106-.017c.033.025.04.074.016.107l-.09.114c-.016.016-.04.033-.056.033a.062.062 0 0 1-.041-.017c-.041-.024-.05-.065-.025-.098Zm-.073.375-.074.123a.074.074 0 0 1-.065.032c-.016 0-.024 0-.032-.008-.033-.016-.05-.065-.025-.098.025-.04.049-.09.073-.13.025-.033.066-.05.098-.025.033.024.041.065.025.106Zm-.033-.654c.033.025.041.074.017.107-.033.04-.058.073-.09.114-.017.016-.041.033-.057.033a.062.062 0 0 1-.041-.017.078.078 0 0 1-.016-.106c.032-.04.057-.082.09-.122.024-.033.065-.033.097-.009Z" fill="#000"/></svg>