<svg width="13" height="13" fill="none" xmlns="http://www.w3.org/2000/svg"><path d="M3.017 11.94c-.029-.059-.014-.146.058-.175.058-.029.145-.014.174.058l.13.218a.156.156 0 0 1-.014.16l.261.13c-.029-.043-.043-.086-.072-.13-.03-.058-.015-.145.058-.174.058-.03.145-.015.174.058l.13.218c.03.043.015.116-.014.16.145.057.29.13.45.174a8.725 8.725 0 0 1-1.074-4.198c0-2.324.9-4.517 2.553-6.158A8.744 8.744 0 0 1 8.703.363a7.929 7.929 0 0 0-1.19-.305c0 .044-.028.087-.086.117-.073.029-.16.072-.232.101-.015.015-.03.015-.058.015-.044 0-.102-.03-.116-.073-.03-.073 0-.145.072-.174.015-.015.03-.015.044-.015C6.934.015 6.73 0 6.513 0 2.916-.029 0 2.89 0 6.493a6.5 6.5 0 0 0 3.06 5.534.236.236 0 0 0-.043-.087ZM7.601.29c.072-.043.16-.072.232-.101.072-.029.145 0 .174.073.029.072 0 .145-.072.174-.073.029-.16.073-.233.102-.014.014-.029.014-.058.014-.043 0-.101-.029-.116-.072-.029-.088 0-.16.073-.19ZM3.104 10.866h-.043c-.058 0-.102-.03-.13-.088-.03-.087-.059-.174-.073-.246-.015-.073.014-.146.087-.16.072-.015.145.014.16.087.028.087.043.16.072.247.029.072 0 .145-.073.16ZM2.742 6.87a.141.141 0 0 1 .116.146c-.015.087-.015.174-.03.261 0 .073-.057.116-.13.116h-.014c-.073-.014-.131-.072-.117-.145.015-.087.015-.174.03-.261.014-.088.072-.131.145-.117Zm-.03-.523c.015-.087.044-.174.059-.261a.134.134 0 1 1 .26.058c-.014.087-.043.16-.057.247a.14.14 0 0 1-.13.102h-.03c-.072 0-.13-.073-.101-.146Zm-.058 1.395a.13.13 0 0 1 .131.13v.262a.13.13 0 0 1-.13.13.13.13 0 0 1-.131-.13v-.276c0-.058.058-.116.13-.116Zm.015.886c.073 0 .13.043.145.116 0 .087.015.174.03.261.014.073-.044.131-.117.146h-.014c-.073 0-.117-.044-.131-.116-.015-.088-.015-.175-.029-.262-.015-.073.043-.145.116-.145Zm.087.886c.073-.015.145.029.145.102.015.087.03.174.044.246a.134.134 0 0 1-.102.16h-.029a.14.14 0 0 1-.13-.101 1.69 1.69 0 0 0-.059-.262.191.191 0 0 1 .131-.145Zm.638 1.772c.03.072.073.16.102.232.029.073 0 .146-.073.175-.014.014-.029.014-.058.014-.043 0-.101-.029-.116-.073-.029-.087-.072-.16-.101-.247-.03-.072 0-.145.072-.174.073-.029.16 0 .174.073Zm-.13-5.97c-.03.087-.058.16-.087.247-.015.058-.073.087-.13.087h-.044a.139.139 0 0 1-.087-.16c.029-.087.058-.174.087-.246.029-.073.101-.102.16-.073.086 0 .13.087.1.145ZM6.804.697c.072-.043.159-.087.231-.13.058-.03.145-.015.174.058.03.072.015.145-.058.174l-.217.13c-.015.015-.044.015-.073.015-.043 0-.087-.029-.116-.058-.029-.072-.014-.16.058-.189ZM6.28.436c.072-.044.16-.087.232-.13.058-.03.145-.015.174.057.029.058.015.146-.058.175l-.218.13c-.014.015-.043.015-.072.015-.044 0-.087-.03-.116-.058-.03-.073 0-.16.058-.189Zm-.232.755a1.89 1.89 0 0 1 .217-.145c.058-.044.145-.03.174.029.044.058.03.145-.029.174-.072.044-.145.102-.203.146-.029.014-.043.029-.072.029-.044 0-.087-.015-.102-.058-.058-.059-.043-.131.015-.175ZM5.527.93a1.89 1.89 0 0 1 .217-.145c.058-.044.145-.03.174.029.044.058.03.145-.029.174-.072.043-.145.102-.203.145-.029.015-.043.03-.072.03-.044 0-.087-.015-.102-.059-.058-.058-.043-.13.015-.174Zm-.174.828a2.53 2.53 0 0 1 .203-.175.137.137 0 0 1 .188.015.137.137 0 0 1-.014.189c-.058.058-.13.116-.189.174-.029.03-.058.03-.087.03a.157.157 0 0 1-.101-.044c-.058-.059-.058-.146 0-.19Zm-.523-.262c.058-.058.13-.116.203-.174a.137.137 0 0 1 .189.014.137.137 0 0 1-.015.19c-.058.057-.13.115-.188.174-.03.029-.058.029-.087.029a.157.157 0 0 1-.102-.044c-.058-.058-.058-.145 0-.189Zm-.116.886c.058-.058.116-.13.174-.189.044-.058.13-.058.189 0 .058.044.058.131 0 .19-.058.057-.116.13-.174.188a.132.132 0 0 1-.102.044c-.029 0-.058-.015-.087-.03a.175.175 0 0 1 0-.203Zm-.522-.261c.058-.058.116-.13.174-.189.044-.058.13-.058.189 0 .058.044.058.13 0 .189-.058.058-.116.13-.174.189a.132.132 0 0 1-.102.043.206.206 0 0 1-.087-.029.175.175 0 0 1 0-.203Zm-.043.958c.058-.072.101-.145.16-.217a.137.137 0 0 1 .188-.03c.058.044.072.131.029.19l-.16.203c-.029.029-.072.058-.101.058a.11.11 0 0 1-.073-.03c-.072-.028-.087-.115-.043-.174Zm-.131.669-.13.217a.132.132 0 0 1-.117.059c-.029 0-.043 0-.058-.015-.058-.029-.087-.116-.043-.174.043-.073.087-.16.13-.233.044-.058.116-.087.175-.043.072.043.087.13.043.189Zm-.392-.93c.058-.073.102-.145.16-.218a.137.137 0 0 1 .188-.029c.059.044.073.13.03.189-.059.073-.102.13-.16.203-.03.03-.073.058-.102.058a.11.11 0 0 1-.072-.029c-.073-.029-.087-.101-.044-.174Zm-.029 1.7c-.043.072-.072.16-.101.232-.015.043-.073.072-.116.072-.015 0-.03 0-.058-.014-.073-.03-.102-.102-.073-.174.03-.088.073-.16.116-.247a.14.14 0 0 1 .174-.058c.073.043.102.116.058.188Zm-.45-.945c.044-.072.088-.16.131-.232.044-.058.116-.087.174-.044.058.044.087.116.044.175l-.13.217a.132.132 0 0 1-.117.059c-.029 0-.043 0-.058-.015-.058-.014-.087-.087-.043-.16Zm-.405.814c.029-.087.072-.16.116-.247a.14.14 0 0 1 .174-.058.14.14 0 0 1 .058.174c-.044.073-.073.16-.102.232-.014.044-.072.073-.116.073-.014 0-.029 0-.058-.015-.072-.029-.101-.101-.072-.16Zm-.334.828c.029-.088.058-.175.087-.247.029-.073.101-.102.16-.073.072.03.101.102.072.16-.029.087-.058.16-.087.247-.015.058-.073.087-.13.087h-.044c-.03-.03-.073-.102-.058-.174Zm-.218.871c.015-.087.044-.174.058-.261a.134.134 0 1 1 .261.058c-.014.087-.043.16-.058.247a.14.14 0 0 1-.13.101h-.03c-.072 0-.115-.072-.1-.145Zm-.145.886c.015-.087.015-.174.03-.261a.141.141 0 0 1 .144-.117.141.141 0 0 1 .116.146c-.014.087-.014.174-.029.261 0 .073-.058.116-.13.116H2.16c-.072 0-.13-.072-.116-.145Zm-.043.9v-.26a.13.13 0 0 1 .13-.132.13.13 0 0 1 .13.131v.262a.13.13 0 0 1-.13.13.13.13 0 0 1-.13-.13Zm.043.901c-.014-.087-.014-.174-.029-.261 0-.073.044-.131.116-.146.073 0 .13.044.145.117 0 .087.015.174.03.261.014.073-.044.13-.117.145h-.014c-.058 0-.116-.043-.13-.116Zm.145.886c-.014-.087-.029-.174-.058-.261-.014-.073.03-.146.102-.146.072-.014.145.03.145.102.014.087.029.174.043.247a.134.134 0 0 1-.101.16h-.03c-.043 0-.086-.044-.1-.102Zm.348.959c-.058 0-.101-.03-.13-.087-.03-.088-.058-.175-.073-.247-.014-.073.015-.146.087-.16.073-.015.145.014.16.087.029.087.043.16.073.247a.116.116 0 0 1-.088.16h-.029Zm.378.813c-.015.015-.03.015-.058.015-.044 0-.102-.03-.116-.073-.03-.087-.073-.16-.102-.247-.029-.072 0-.145.073-.174.072-.03.145 0 .174.072.029.073.072.16.101.233.015.072-.014.145-.072.174Z" fill="#000"/><path d="M3.773 8.425c0 1.583.45 3.108 1.277 4.416.116.029.218.043.334.072-.015-.029-.03-.058-.058-.101-.03-.058-.015-.146.058-.175.058-.029.145-.014.174.058l.13.218c.015.015.015.03.015.044.043 0 .101.014.145.014.014-.029.029-.058.058-.072.058-.03.145-.015.174.058.014.014.014.029.029.043H6.5C10.098 13 13 10.082 13 6.494a6.507 6.507 0 0 0-2.67-5.257.175.175 0 0 1-.072.072c-.072.03-.16.073-.232.102-.014.014-.029.014-.058.014-.043 0-.101-.029-.116-.072-.029-.073 0-.146.073-.175.072-.029.13-.058.203-.087-.102-.072-.203-.13-.305-.189a.146.146 0 0 1-.072.16c-.073.03-.16.073-.232.102-.015.014-.03.014-.058.014-.044 0-.102-.029-.116-.072-.03-.073 0-.145.072-.174.087-.03.16-.073.247-.102h.014C9.59.785 9.49.727 9.402.684a8.057 8.057 0 0 0-3.206 1.99c-1.567 1.51-2.423 3.573-2.423 5.751ZM5.471 4.46c.043-.073.087-.16.13-.232.044-.058.116-.088.174-.044.058.044.087.116.044.174l-.13.218a.132.132 0 0 1-.117.058c-.029 0-.043 0-.058-.014-.058-.015-.072-.102-.043-.16Zm-.48 4.169a.13.13 0 0 1 .131.13v.262a.13.13 0 0 1-.13.13.13.13 0 0 1-.13-.13v-.276c0-.073.057-.131.13-.116Zm-.1-.509c.014-.087.014-.174.028-.261a.141.141 0 0 1 .145-.116.141.141 0 0 1 .116.145c-.014.087-.014.174-.029.261 0 .073-.058.116-.13.116h-.015a.141.141 0 0 1-.116-.145Zm.1 1.38c.073 0 .131.044.146.116 0 .087.014.175.029.262.014.072-.044.13-.116.145h-.015c-.072 0-.116-.044-.13-.116-.015-.087-.015-.175-.03-.262-.014-.072.044-.13.117-.145Zm.102.886c.073-.014.145.03.145.102l.044.247a.134.134 0 0 1-.102.16h-.029a.14.14 0 0 1-.13-.102c-.015-.087-.03-.175-.058-.262.014-.058.058-.13.13-.145Zm.189-3.108a.14.14 0 0 1-.13.101h-.03a.134.134 0 0 1-.101-.16c.014-.086.043-.174.058-.26a.134.134 0 1 1 .261.057 1.167 1.167 0 0 1-.058.262Zm.073-.756a.139.139 0 0 1-.088-.16c.03-.086.059-.174.088-.246.029-.073.101-.102.16-.073.072.03.1.102.072.16-.03.087-.058.16-.087.247-.015.058-.073.087-.131.087 0 0 0-.015-.014-.015Zm-.29-1.263c.028-.087.072-.16.115-.247a.14.14 0 0 1 .175-.058c.058.029.087.116.058.174-.044.073-.073.16-.102.233-.014.043-.073.072-.116.072-.015 0-.029 0-.058-.014-.073-.015-.102-.102-.073-.16Zm-.32.842c.03-.087.058-.174.087-.247.03-.072.102-.101.16-.072.072.029.101.101.072.16-.029.087-.058.16-.087.246-.014.059-.072.088-.13.088h-.044c-.043-.03-.087-.102-.058-.175Zm-.232.872c.015-.087.044-.175.058-.262a.134.134 0 1 1 .261.058c-.014.088-.043.16-.058.247a.14.14 0 0 1-.13.102h-.03c-.072-.015-.115-.087-.1-.145Zm-.145.886c.015-.087.015-.175.03-.262a.141.141 0 0 1 .144-.116.141.141 0 0 1 .116.145c-.014.088-.014.175-.029.262 0 .072-.058.116-.13.116h-.015a.141.141 0 0 1-.116-.145Zm-.043.886v-.262a.13.13 0 0 1 .13-.13.13.13 0 0 1 .13.13v.262a.13.13 0 0 1-.13.13.13.13 0 0 1-.13-.13Zm.058.9c-.015-.087-.015-.174-.03-.261 0-.073.044-.13.117-.145.072 0 .13.043.145.116 0 .087.014.174.029.261.014.073-.044.131-.116.145h-.015c-.072 0-.13-.043-.13-.116Zm.13.886a1.692 1.692 0 0 0-.058-.261c-.014-.073.03-.145.102-.145.072-.015.145.029.145.101.014.087.029.175.043.247a.134.134 0 0 1-.101.16h-.03c-.028 0-.086-.03-.1-.102Zm.363.959c-.058 0-.102-.03-.13-.087-.03-.087-.059-.175-.073-.247-.015-.073.014-.145.087-.16.072-.014.145.015.16.087.028.087.043.16.072.247a.116.116 0 0 1-.087.16h-.03Zm.362.813c-.014.015-.029.015-.058.015-.043 0-.101-.03-.116-.073-.029-.087-.072-.16-.101-.247-.03-.072 0-.145.072-.174.073-.03.145 0 .174.073.03.072.073.16.102.232.029.073 0 .145-.073.174Zm.204-.552h-.044c-.058 0-.101-.029-.13-.087a2.24 2.24 0 0 1-.073-.247c-.015-.072.014-.145.087-.16.073-.014.145.015.16.088.029.087.043.16.072.247.03.058-.014.13-.072.16Zm.319.814c-.015.014-.03.014-.058.014-.044 0-.102-.029-.116-.072-.03-.088-.073-.16-.102-.247-.029-.073 0-.146.073-.175.072-.029.145 0 .174.073.029.073.072.16.101.232.03.073 0 .146-.072.175Zm.174-7.175c-.044.072-.073.16-.102.232-.014.044-.072.073-.116.073-.014 0-.029 0-.058-.015-.072-.029-.101-.102-.072-.174.029-.087.072-.16.116-.247.029-.058.116-.087.174-.058.058.043.087.13.058.189Zm3.191-3.82c.072-.044.16-.088.232-.131.058-.03.145-.015.174.058.03.058.015.145-.058.174l-.217.131c-.015.015-.044.015-.059.015-.043 0-.087-.03-.116-.059-.043-.072-.014-.145.044-.188Zm-.522-.262c.072-.043.16-.087.232-.13.058-.03.145-.015.174.058.029.058.014.145-.058.174l-.218.13c-.014.015-.043.015-.072.015-.044 0-.087-.029-.116-.058-.03-.073 0-.145.058-.189Zm-.232.755c.072-.058.145-.101.217-.145.058-.043.145-.029.174.03.044.057.03.144-.029.174-.072.043-.145.101-.203.145-.029.014-.043.029-.072.029-.044 0-.087-.015-.102-.058-.043-.058-.043-.131.015-.175Zm-.523-.261c.073-.058.146-.102.218-.145.058-.044.145-.03.174.029.044.058.03.145-.029.174-.072.044-.145.102-.203.145-.029.015-.043.03-.072.03-.044 0-.088-.015-.102-.059-.044-.058-.044-.13.014-.174Zm-.174.828a2.53 2.53 0 0 1 .203-.174.137.137 0 0 1 .19.014.137.137 0 0 1-.015.189c-.058.058-.131.116-.189.174-.029.03-.058.03-.087.03a.157.157 0 0 1-.102-.044.136.136 0 0 1 0-.19Zm-.522-.262c.058-.058.13-.116.203-.174a.137.137 0 0 1 .189.015.137.137 0 0 1-.015.188c-.058.059-.13.117-.188.175-.03.029-.058.029-.087.029a.157.157 0 0 1-.102-.044.136.136 0 0 1 0-.189Zm-.101.901c.058-.058.116-.13.174-.189.043-.058.13-.058.188 0 .058.044.058.13 0 .189-.058.058-.116.13-.174.189a.132.132 0 0 1-.101.043.206.206 0 0 1-.087-.029c-.044-.072-.058-.16 0-.203Zm-.523-.261c.059-.059.117-.131.175-.19.043-.057.13-.057.188 0 .058.044.058.131 0 .19-.058.058-.116.13-.174.188a.132.132 0 0 1-.101.044c-.03 0-.059-.015-.088-.03-.043-.072-.058-.159 0-.202Zm-.043.958c.058-.072.102-.145.16-.218a.137.137 0 0 1 .188-.029c.058.044.073.131.03.19-.059.072-.102.13-.16.202-.03.03-.073.059-.102.059a.11.11 0 0 1-.073-.03c-.072-.043-.087-.116-.043-.174Zm-.13.668-.131.218a.132.132 0 0 1-.116.058c-.03 0-.044 0-.058-.014-.058-.03-.087-.116-.044-.175.044-.072.087-.16.13-.232.044-.058.117-.087.175-.044.058.044.072.117.043.19Zm-.059-1.162c.058.044.073.131.03.19-.059.072-.102.13-.16.202-.03.03-.073.059-.102.059a.11.11 0 0 1-.072-.03.138.138 0 0 1-.03-.188c.059-.073.102-.146.16-.218.044-.058.116-.058.174-.015Z" fill="#000"/></svg>