<svg width="21" height="12" viewBox="0 0 21 12" fill="none" xmlns="http://www.w3.org/2000/svg">
<g clip-path="url(#clip0_11745_107601)">
<path d="M7.53038 10.6582C6.57951 10.6582 5.62864 10.6582 4.67545 10.6582C4.52082 10.6582 4.51621 10.6539 4.51621 10.5091C4.51621 10.2579 4.51621 10.0066 4.51621 9.7554C4.51621 9.5957 4.51621 9.5957 4.68699 9.5957C4.99164 9.5957 5.29629 9.5957 5.60094 9.5957C5.73019 8.72059 5.56863 8.00943 5.1232 7.48138C4.46543 6.70208 3.36916 6.54877 3.17529 6.52748C3.16606 6.52748 3.15913 6.52748 3.15221 6.52535C3.14759 6.52535 3.14529 6.52535 3.14529 6.52535C3.11298 6.51258 3.08759 6.47851 3.0622 6.45722C3.05297 6.45083 3.04604 6.44231 3.03912 6.4338C2.83371 6.21448 2.62369 5.99943 2.41367 5.78225C2.11594 5.47777 1.83206 5.16051 1.5228 4.86668C1.28047 4.63459 0.985049 4.55794 0.650397 4.64311C-0.0650663 4.82197 -0.134305 5.56081 0.172652 5.92917C0.24189 6.01434 0.320361 6.09099 0.401139 6.16764C1.29431 6.99165 2.18518 7.81567 3.08066 8.63542C3.19145 8.73549 3.2376 8.83983 3.23299 8.98036C3.22376 9.33807 3.23068 9.69578 3.23068 10.0535C3.23068 10.4708 3.23068 10.8881 3.23068 11.3076C3.23068 11.4311 3.24222 11.4417 3.35993 11.4417C4.78393 11.4417 6.20562 11.4417 7.62962 11.4417C7.72656 11.4417 7.76118 11.4098 7.76118 11.3268C7.76118 11.1756 7.76118 11.0223 7.76118 10.8711C7.76118 10.6624 7.75425 10.6561 7.53038 10.6561V10.6582Z" fill="black"/>
<path d="M10.1102 3.90858C10.1102 3.86174 10.1102 3.81276 10.1102 3.76592C10.1171 3.63604 10.071 3.52319 9.97634 3.42737C9.70631 3.1527 9.27242 3.13993 8.98392 3.40182C8.59157 3.75953 8.20153 4.1215 7.81149 4.48134C7.78379 4.50689 7.76071 4.5367 7.71917 4.55374C7.71455 4.52606 7.71917 4.50902 7.72379 4.49199C7.88073 3.94052 8.03997 3.39118 8.19691 2.8397C8.27769 2.55652 8.37001 2.27333 8.43694 1.98588C8.53157 1.57494 8.11614 1.24491 7.7861 1.26194C7.44222 1.27898 7.20219 1.44719 7.10987 1.77935C6.85138 2.69492 6.58366 3.60836 6.3344 4.52606C6.35287 4.45792 6.35517 4.38766 6.35517 4.31739C6.35517 3.66585 6.35517 3.0143 6.35517 2.36276C6.35517 2.00079 6.35979 1.64095 6.35517 1.27898C6.35056 0.874424 6.12669 0.621046 5.7251 0.550781H5.49431C5.13427 0.614658 4.89424 0.83184 4.86655 1.13206C4.82501 1.61114 4.80423 2.09234 4.77192 2.57142C4.75346 2.87803 4.7373 3.18677 4.71653 3.49338C4.70499 3.66585 4.70268 3.83831 4.68422 4.01291C4.67037 4.14067 4.6496 4.27055 4.68191 4.40043V4.40469C4.6773 4.40469 4.67037 4.3983 4.66576 4.37914C4.66345 4.30036 4.62421 4.20454 4.58959 4.1066C4.35418 3.44015 4.12108 2.7737 3.88798 2.10512C3.82336 1.91988 3.77258 1.73038 3.67565 1.55578C3.52102 1.27046 3.17482 1.14697 2.85633 1.25769C2.53552 1.36841 2.35781 1.68353 2.44321 1.98801C2.7017 2.89932 2.93941 3.81489 3.19098 4.72833C3.21175 4.80712 3.22329 4.88803 3.22329 4.96894C3.22329 5.33729 3.22329 5.70565 3.22329 6.07614C3.48178 6.10382 4.71653 6.27841 5.49431 7.19611C6.01591 7.81146 6.21439 8.61631 6.08284 9.58937C6.57443 9.58937 7.06602 9.58937 7.55531 9.58937C7.73763 9.58937 7.74917 9.57446 7.75379 9.40838C7.7584 9.21037 7.73302 9.01022 7.76533 8.81433C7.92227 7.86895 8.08383 6.9257 8.24077 5.98032C8.26154 5.86321 8.31 5.77166 8.40232 5.68649C8.90545 5.2287 9.40166 4.76666 9.90018 4.30675C10.0202 4.19603 10.1125 4.07253 10.101 3.90645L10.1102 3.90858ZM4.68884 4.40682C4.69345 4.40682 4.69345 4.40682 4.68884 4.40682V4.40682Z" fill="black"/>
</g>
<g clip-path="url(#clip1_11745_107601)">
<path d="M13.4696 10.6582C14.4205 10.6582 15.3714 10.6582 16.3245 10.6582C16.4792 10.6582 16.4838 10.6539 16.4838 10.5091C16.4838 10.2579 16.4838 10.0066 16.4838 9.7554C16.4838 9.5957 16.4838 9.5957 16.313 9.5957C16.0084 9.5957 15.7037 9.5957 15.3991 9.5957C15.2698 8.72059 15.4314 8.00943 15.8768 7.48138C16.5346 6.70208 17.6308 6.54877 17.8247 6.52748C17.8339 6.52748 17.8409 6.52748 17.8478 6.52535C17.8524 6.52535 17.8547 6.52535 17.8547 6.52535C17.887 6.51258 17.9124 6.47851 17.9378 6.45722C17.947 6.45083 17.954 6.44231 17.9609 6.4338C18.1663 6.21448 18.3763 5.99943 18.5863 5.78225C18.8841 5.47777 19.1679 5.16051 19.4772 4.86668C19.7195 4.63459 20.015 4.55794 20.3496 4.64311C21.0651 4.82197 21.1343 5.56081 20.8273 5.92917C20.7581 6.01434 20.6796 6.09099 20.5989 6.16764C19.7057 6.99165 18.8148 7.81567 17.9193 8.63542C17.8086 8.73549 17.7624 8.83983 17.767 8.98036C17.7762 9.33807 17.7693 9.69578 17.7693 10.0535C17.7693 10.4708 17.7693 10.8881 17.7693 11.3076C17.7693 11.4311 17.7578 11.4417 17.6401 11.4417C16.2161 11.4417 14.7944 11.4417 13.3704 11.4417C13.2734 11.4417 13.2388 11.4098 13.2388 11.3268C13.2388 11.1756 13.2388 11.0223 13.2388 10.8711C13.2388 10.6624 13.2457 10.6561 13.4696 10.6561V10.6582Z" fill="black"/>
<path d="M10.8898 3.90858C10.8898 3.86174 10.8898 3.81276 10.8898 3.76592C10.8829 3.63604 10.929 3.52319 11.0237 3.42737C11.2937 3.1527 11.7276 3.13993 12.0161 3.40182C12.4084 3.75953 12.7985 4.1215 13.1885 4.48134C13.2162 4.50689 13.2393 4.5367 13.2808 4.55374C13.2854 4.52606 13.2808 4.50902 13.2762 4.49199C13.1193 3.94052 12.96 3.39118 12.8031 2.8397C12.7223 2.55652 12.63 2.27333 12.5631 1.98588C12.4684 1.57494 12.8839 1.24491 13.2139 1.26194C13.5578 1.27898 13.7978 1.44719 13.8901 1.77935C14.1486 2.69492 14.4163 3.60836 14.6656 4.52606C14.6471 4.45792 14.6448 4.38766 14.6448 4.31739C14.6448 3.66585 14.6448 3.0143 14.6448 2.36276C14.6448 2.00079 14.6402 1.64095 14.6448 1.27898C14.6494 0.874424 14.8733 0.621046 15.2749 0.550781H15.5057C15.8657 0.614658 16.1058 0.83184 16.1335 1.13206C16.175 1.61114 16.1958 2.09234 16.2281 2.57142C16.2465 2.87803 16.2627 3.18677 16.2835 3.49338C16.295 3.66585 16.2973 3.83831 16.3158 4.01291C16.3296 4.14067 16.3504 4.27055 16.3181 4.40043V4.40469C16.3227 4.40469 16.3296 4.3983 16.3342 4.37914C16.3366 4.30036 16.3758 4.20454 16.4104 4.1066C16.6458 3.44015 16.8789 2.7737 17.112 2.10512C17.1766 1.91988 17.2274 1.73038 17.3244 1.55578C17.479 1.27046 17.8252 1.14697 18.1437 1.25769C18.4645 1.36841 18.6422 1.68353 18.5568 1.98801C18.2983 2.89932 18.0606 3.81489 17.809 4.72833C17.7882 4.80712 17.7767 4.88803 17.7767 4.96894C17.7767 5.33729 17.7767 5.70565 17.7767 6.07614C17.5182 6.10382 16.2835 6.27841 15.5057 7.19611C14.9841 7.81146 14.7856 8.61631 14.9172 9.58937C14.4256 9.58937 13.934 9.58937 13.4447 9.58937C13.2624 9.58937 13.2508 9.57446 13.2462 9.40838C13.2416 9.21037 13.267 9.01022 13.2347 8.81433C13.0777 7.86895 12.9162 6.9257 12.7592 5.98032C12.7385 5.86321 12.69 5.77166 12.5977 5.68649C12.0945 5.2287 11.5983 4.76666 11.0998 4.30675C10.9798 4.19603 10.8875 4.07253 10.899 3.90645L10.8898 3.90858ZM16.3112 4.40682C16.3065 4.40682 16.3065 4.40682 16.3112 4.40682V4.40682Z" fill="black"/>
</g>
<defs>
<clipPath id="clip0_11745_107601">
<rect width="10.1111" height="10.8889" fill="white" transform="translate(0 0.554688)"/>
</clipPath>
<clipPath id="clip1_11745_107601">
<rect width="10.1111" height="10.8889" fill="white" transform="matrix(-1 0 0 1 21 0.554688)"/>
</clipPath>
</defs>
</svg>
